<svg width="1598" height="354" viewBox="0 0 1598 354" fill="none" xmlns="http://www.w3.org/2000/svg">
<path d="M173.448 256.462C176.751 244.463 175.73 219.662 145.218 216.454C142.074 227.321 143.319 250.537 173.448 256.462Z" fill="#4E7D9C"/>
<path d="M173.752 256.462C170.449 244.463 171.47 219.662 201.982 216.454C205.126 227.321 203.881 250.537 173.752 256.462Z" fill="#7DB3D6"/>
<path opacity="0.76" d="M172.956 254.27C163.578 246.108 150.731 224.886 174.372 205.292C182.992 212.6 194.778 232.626 172.956 254.27Z" stroke="#3A647F" stroke-width="3"/>
<g filter="url(#filter0_f_84_737)">
<circle cx="172" cy="98" r="61" fill="#76CAFF" fill-opacity="0.77"/>
</g>
<path d="M213.427 108.358C213.427 131.21 194.943 149.717 172.164 149.717C149.385 149.717 130.901 131.21 130.901 108.358C130.901 85.5071 149.385 67 172.164 67C194.943 67 213.427 85.5071 213.427 108.358Z" fill="white" stroke="#3A647F" stroke-width="10"/>
<path d="M171.447 254.462C174.75 242.463 173.729 217.662 143.217 214.454C140.074 225.321 141.318 248.537 171.447 254.462Z" fill="#4E7D9C"/>
<path d="M171.752 254.462C168.449 242.463 169.47 217.662 199.982 214.454C203.126 225.321 201.881 248.537 171.752 254.462Z" fill="#7DB3D6"/>
<path opacity="0.69" d="M170.955 251.27C161.577 243.108 148.73 221.885 172.371 202.291C180.991 209.599 192.777 229.626 170.955 251.27Z" fill="#98D0F4"/>
<path d="M177.539 290.018C158.249 269.567 127.94 240.936 74.1981 245.026C32.8666 248.172 35.342 316.195 177.539 290.018ZM177.539 290.018C194.073 258.66 247.816 200.035 272.617 236.846C289.158 273.658 278.253 305.738 183.179 289.377C141.843 252.566 79.0216 163.222 169.961 159.132C231.966 159.132 243.525 193.029 189.788 258.472" stroke="#3A647F" stroke-width="10" stroke-linecap="round" stroke-linejoin="round"/>
<path d="M385.744 203.352V247H357.232V203L309.536 123.8H339.808L372.72 178.536L405.632 123.8H433.616L385.744 203.352ZM499.881 249.112C487.092 249.112 475.535 246.355 465.209 240.84C455.001 235.325 446.964 227.757 441.097 218.136C435.348 208.397 432.473 197.485 432.473 185.4C432.473 173.315 435.348 162.461 441.097 152.84C446.964 143.101 455.001 135.475 465.209 129.96C475.535 124.445 487.092 121.688 499.881 121.688C512.671 121.688 524.169 124.445 534.377 129.96C544.585 135.475 552.623 143.101 558.489 152.84C564.356 162.461 567.289 173.315 567.289 185.4C567.289 197.485 564.356 208.397 558.489 218.136C552.623 227.757 544.585 235.325 534.377 240.84C524.169 246.355 512.671 249.112 499.881 249.112ZM499.881 224.824C507.156 224.824 513.727 223.181 519.593 219.896C525.46 216.493 530.036 211.8 533.321 205.816C536.724 199.832 538.425 193.027 538.425 185.4C538.425 177.773 536.724 170.968 533.321 164.984C530.036 159 525.46 154.365 519.593 151.08C513.727 147.677 507.156 145.976 499.881 145.976C492.607 145.976 486.036 147.677 480.169 151.08C474.303 154.365 469.668 159 466.265 164.984C462.98 170.968 461.337 177.773 461.337 185.4C461.337 193.027 462.98 199.832 466.265 205.816C469.668 211.8 474.303 216.493 480.169 219.896C486.036 223.181 492.607 224.824 499.881 224.824ZM643.453 249.112C625.853 249.112 612.125 244.243 602.269 234.504C592.531 224.765 587.661 210.861 587.661 192.792V123.8H616.173V191.736C616.173 213.795 625.325 224.824 643.629 224.824C652.547 224.824 659.352 222.184 664.045 216.904C668.739 211.507 671.085 203.117 671.085 191.736V123.8H699.245V192.792C699.245 210.861 694.317 224.765 684.461 234.504C674.723 244.243 661.053 249.112 643.453 249.112ZM805.917 247L782.157 212.68H780.749H755.933V247H727.421V123.8H780.749C791.661 123.8 801.106 125.619 809.085 129.256C817.181 132.893 823.399 138.056 827.741 144.744C832.082 151.432 834.253 159.352 834.253 168.504C834.253 177.656 832.023 185.576 827.565 192.264C823.223 198.835 817.005 203.88 808.909 207.4L836.541 247H805.917ZM805.389 168.504C805.389 161.581 803.159 156.301 798.701 152.664C794.242 148.909 787.73 147.032 779.165 147.032H755.933V189.976H779.165C787.73 189.976 794.242 188.099 798.701 184.344C803.159 180.589 805.389 175.309 805.389 168.504ZM935.198 146.68V179.24H992.222V202.12H935.198V247H906.686V123.8H999.79V146.68H935.198ZM1097.59 247L1073.83 212.68H1072.42H1047.6V247H1019.09V123.8H1072.42C1083.33 123.8 1092.78 125.619 1100.76 129.256C1108.85 132.893 1115.07 138.056 1119.41 144.744C1123.75 151.432 1125.92 159.352 1125.92 168.504C1125.92 177.656 1123.7 185.576 1119.24 192.264C1114.9 198.835 1108.68 203.88 1100.58 207.4L1128.21 247H1097.59ZM1097.06 168.504C1097.06 161.581 1094.83 156.301 1090.37 152.664C1085.91 148.909 1079.4 147.032 1070.84 147.032H1047.6V189.976H1070.84C1079.4 189.976 1085.91 188.099 1090.37 184.344C1094.83 180.589 1097.06 175.309 1097.06 168.504ZM1148.51 123.8H1177.03V247H1148.51V123.8ZM1301.66 224.12V247H1206.26V123.8H1299.37V146.68H1234.6V173.432H1291.8V195.608H1234.6V224.12H1301.66ZM1437.33 123.8V247H1413.93L1352.5 172.2V247H1324.34V123.8H1347.93L1409.17 198.6V123.8H1437.33ZM1466.48 123.8H1522.45C1535.83 123.8 1547.62 126.381 1557.83 131.544C1568.15 136.589 1576.13 143.747 1581.76 153.016C1587.51 162.285 1590.39 173.08 1590.39 185.4C1590.39 197.72 1587.51 208.515 1581.76 217.784C1576.13 227.053 1568.15 234.269 1557.83 239.432C1547.62 244.477 1535.83 247 1522.45 247H1466.48V123.8ZM1521.04 223.592C1533.36 223.592 1543.16 220.189 1550.44 213.384C1557.83 206.461 1561.52 197.133 1561.52 185.4C1561.52 173.667 1557.83 164.397 1550.44 157.592C1543.16 150.669 1533.36 147.208 1521.04 147.208H1495V223.592H1521.04Z" fill="#0097B2"/>
<defs>
<filter id="filter0_f_84_737" x="74" y="0" width="196" height="196" filterUnits="userSpaceOnUse" color-interpolation-filters="sRGB">
<feFlood flood-opacity="0" result="BackgroundImageFix"/>
<feBlend mode="normal" in="SourceGraphic" in2="BackgroundImageFix" result="shape"/>
<feGaussianBlur stdDeviation="18.5" result="effect1_foregroundBlur_84_737"/>
</filter>
</defs>
</svg>
